<svg width="179" height="179" viewBox="0 0 179 179" fill="none" xmlns="http://www.w3.org/2000/svg">
<path opacity="0.3" d="M111.875 82.0416V29.8333H29.8333V90.7679L34.2338 86.4421L38.5596 82.0416H44.75H111.875Z" fill="#7D47EF"/>
<path d="M156.625 44.75H141.708V111.875H44.75V126.792C44.75 130.894 48.1062 134.25 52.2083 134.25H134.25L164.083 164.083V52.2084C164.083 48.1063 160.727 44.75 156.625 44.75ZM119.333 96.9584C123.435 96.9584 126.792 93.6021 126.792 89.5V22.375C126.792 18.2729 123.435 14.9167 119.333 14.9167H22.375C18.2729 14.9167 14.9167 18.2729 14.9167 22.375V126.792L44.75 96.9584H119.333ZM34.2337 86.4421L29.8333 90.7679V29.8334H111.875V82.0417H38.5596L34.2337 86.4421Z" fill="#7D47EF"/>
</svg>
