<svg width="110" height="19" viewBox="0 0 110 19" fill="none" xmlns="http://www.w3.org/2000/svg">
<path d="M4.692 9.237V9.099H8.142C8.878 9.099 9.50283 8.938 10.0165 8.616C10.5302 8.294 10.9212 7.834 11.1895 7.236C11.4578 6.63033 11.592 5.90967 11.592 5.074C11.592 4.23833 11.4578 3.51383 11.1895 2.9005C10.9212 2.2795 10.5302 1.80417 10.0165 1.4745C9.50283 1.13717 8.878 0.968499 8.142 0.968499H0.552V0.749999H8.142C9.29967 0.749999 10.3078 0.903332 11.1665 1.21C12.0328 1.51667 12.7037 1.98817 13.179 2.6245C13.6543 3.26083 13.892 4.07733 13.892 5.074C13.892 6.07067 13.6697 6.87567 13.225 7.489C12.7803 8.09467 12.1287 8.53933 11.27 8.823C10.419 9.099 9.37633 9.237 8.142 9.237H4.692ZM0.552 18V17.7815H7.797V18H0.552ZM3.0705 17.885V0.899499H5.267V17.885H3.0705ZM13.777 18.115C13.11 18.115 12.5887 17.9923 12.213 17.747C11.845 17.5017 11.5767 17.1682 11.408 16.7465C11.2393 16.3248 11.132 15.8533 11.086 15.332C11.0477 14.8107 11.0247 14.274 11.017 13.722C11.0093 13.1623 10.9787 12.6218 10.925 12.1005C10.8713 11.5792 10.7525 11.1077 10.5685 10.686C10.3845 10.2643 10.0893 9.93083 9.683 9.6855C9.28433 9.44017 8.73233 9.3175 8.027 9.3175H4.692V9.191H8.487C9.59867 9.191 10.4803 9.34817 11.132 9.6625C11.7913 9.96917 12.2858 10.3793 12.6155 10.893C12.9452 11.4067 13.1637 11.9702 13.271 12.5835C13.386 13.1968 13.4435 13.814 13.4435 14.435C13.4512 15.0483 13.4665 15.6118 13.4895 16.1255C13.5125 16.6315 13.593 17.0417 13.731 17.356C13.8767 17.6703 14.1488 17.8275 14.5475 17.8275C14.7928 17.8275 15.0152 17.8007 15.2145 17.747C15.4215 17.6933 15.6055 17.6282 15.7665 17.5515L15.847 17.747C15.663 17.8467 15.3908 17.931 15.0305 18C14.6778 18.0767 14.26 18.115 13.777 18.115ZM22.6678 18.23C21.6788 18.23 20.7818 18.0115 19.9768 17.5745C19.1794 17.1298 18.5431 16.4973 18.0678 15.677C17.6001 14.849 17.3663 13.86 17.3663 12.71C17.3663 11.56 17.5924 10.5748 18.0448 9.7545C18.4971 8.9265 19.1143 8.294 19.8963 7.857C20.6859 7.41233 21.5791 7.19 22.5758 7.19C23.7028 7.19 24.6074 7.41617 25.2898 7.8685C25.9721 8.32083 26.4666 8.91117 26.7733 9.6395C27.0799 10.3678 27.2333 11.1498 27.2333 11.9855H18.9188V11.767H24.7953C24.8029 11.3453 24.7799 10.8853 24.7263 10.387C24.6803 9.88867 24.5844 9.41333 24.4388 8.961C24.2931 8.50867 24.0708 8.13683 23.7718 7.8455C23.4728 7.55417 23.0741 7.4085 22.5758 7.4085C22.0161 7.4085 21.5523 7.56183 21.1843 7.8685C20.8239 8.1675 20.5364 8.57 20.3218 9.076C20.1148 9.582 19.9691 10.1493 19.8848 10.778C19.8081 11.4067 19.7698 12.0507 19.7698 12.71C19.7698 13.3617 19.8119 14.0018 19.8963 14.6305C19.9883 15.2592 20.1454 15.8265 20.3678 16.3325C20.5901 16.8308 20.8968 17.2295 21.2878 17.5285C21.6864 17.8275 22.1924 17.977 22.8058 17.977C23.9328 17.977 24.8528 17.6742 25.5658 17.0685C26.2864 16.4628 26.7886 15.7192 27.0723 14.8375H27.3253C27.0263 15.8035 26.4934 16.6123 25.7268 17.264C24.9601 17.908 23.9404 18.23 22.6678 18.23ZM37.9832 18.23C37.6229 18.23 37.2856 18.1763 36.9712 18.069C36.6569 17.9617 36.4001 17.7623 36.2007 17.471C36.0091 17.1797 35.9132 16.7733 35.9132 16.252V10.9965C35.9132 10.4445 35.8711 9.90017 35.7867 9.3635C35.7024 8.81917 35.5146 8.3745 35.2232 8.0295C34.9319 7.67683 34.4796 7.5005 33.8662 7.5005C33.4752 7.5005 33.0804 7.5465 32.6817 7.6385C32.2831 7.7305 31.9151 7.8685 31.5777 8.0525C31.2404 8.22883 30.9682 8.44733 30.7612 8.708C30.5542 8.961 30.4507 9.25233 30.4507 9.582H30.2092C30.2092 9.191 30.3357 8.88433 30.5887 8.662C30.8494 8.432 31.1331 8.317 31.4397 8.317C31.7694 8.317 32.0684 8.42433 32.3367 8.639C32.6127 8.846 32.7507 9.145 32.7507 9.536C32.7507 9.996 32.6089 10.3295 32.3252 10.5365C32.0492 10.7435 31.7541 10.847 31.4397 10.847C31.0871 10.847 30.7881 10.7397 30.5427 10.525C30.3051 10.3103 30.1862 9.996 30.1862 9.582C30.1862 9.22167 30.3012 8.89967 30.5312 8.616C30.7612 8.32467 31.0717 8.07933 31.4627 7.88C31.8537 7.673 32.2946 7.51583 32.7852 7.4085C33.2759 7.2935 33.7819 7.236 34.3032 7.236C35.3612 7.236 36.1509 7.42 36.6722 7.788C37.1936 8.156 37.5386 8.6275 37.7072 9.2025C37.8759 9.7775 37.9602 10.3755 37.9602 10.9965V16.827C37.9602 17.0877 38.0101 17.3138 38.1097 17.5055C38.2171 17.6972 38.4241 17.793 38.7307 17.793C38.9684 17.793 39.2329 17.6857 39.5242 17.471C39.8156 17.2487 40.0417 16.9612 40.2027 16.6085L40.3177 16.7925C40.1184 17.2142 39.8156 17.5592 39.4092 17.8275C39.0029 18.0958 38.5276 18.23 37.9832 18.23ZM32.6587 18.23C31.6621 18.23 30.8647 17.977 30.2667 17.471C29.6764 16.9573 29.3812 16.2635 29.3812 15.3895C29.3812 14.3622 29.8144 13.5687 30.6807 13.009C31.5547 12.4417 32.8082 12.158 34.4412 12.158H36.9827V12.3535H34.4412C33.7666 12.3535 33.2299 12.5107 32.8312 12.825C32.4326 13.1317 32.1451 13.5112 31.9687 13.9635C31.7924 14.4082 31.7042 14.8413 31.7042 15.263C31.7042 15.6463 31.7541 16.0335 31.8537 16.4245C31.9611 16.8155 32.1336 17.1413 32.3712 17.402C32.6166 17.6627 32.9386 17.793 33.3372 17.793C33.7819 17.793 34.1997 17.655 34.5907 17.379C34.9894 17.0953 35.3076 16.6622 35.5452 16.0795C35.7906 15.4968 35.9132 14.7455 35.9132 13.8255H36.0627C36.0627 14.6995 35.9401 15.47 35.6947 16.137C35.4494 16.7963 35.0776 17.31 34.5792 17.678C34.0809 18.046 33.4407 18.23 32.6587 18.23ZM46.7333 18.23C45.729 18.23 44.832 18.0115 44.0423 17.5745C43.2526 17.1298 42.6278 16.4973 42.1678 15.677C41.7155 14.849 41.4893 13.86 41.4893 12.71C41.4893 11.7133 41.6925 10.7972 42.0988 9.9615C42.5128 9.12583 43.1185 8.455 43.9158 7.949C44.7131 7.443 45.6906 7.19 46.8483 7.19C47.6303 7.19 48.305 7.328 48.8723 7.604C49.4396 7.87233 49.8728 8.23267 50.1718 8.685C50.4785 9.12967 50.6318 9.62033 50.6318 10.157C50.6318 10.571 50.513 10.893 50.2753 11.123C50.0376 11.353 49.7425 11.468 49.3898 11.468C49.1981 11.468 48.9988 11.4258 48.7918 11.3415C48.5925 11.2495 48.4238 11.1115 48.2858 10.9275C48.1478 10.7358 48.0788 10.4867 48.0788 10.18C48.0788 9.77367 48.2091 9.467 48.4698 9.26C48.7305 9.04533 49.0371 8.938 49.3898 8.938C49.7195 8.938 50.0031 9.0415 50.2408 9.2485C50.4861 9.44783 50.6088 9.75067 50.6088 10.157H50.4133C50.4133 9.72767 50.3175 9.34433 50.1258 9.007C49.9341 8.662 49.6735 8.3745 49.3438 8.1445C49.0218 7.9145 48.6653 7.73817 48.2743 7.6155C47.8833 7.49283 47.4846 7.4315 47.0783 7.4315C46.4036 7.4315 45.8555 7.604 45.4338 7.949C45.0198 8.28633 44.7016 8.72333 44.4793 9.26C44.257 9.79667 44.1036 10.3717 44.0193 10.985C43.9426 11.5907 43.9043 12.1657 43.9043 12.71C43.9043 13.3693 43.9465 14.0133 44.0308 14.642C44.1151 15.263 44.2646 15.8227 44.4793 16.321C44.694 16.8117 44.9968 17.2065 45.3878 17.5055C45.7788 17.7968 46.2771 17.9425 46.8828 17.9425C47.5575 17.9425 48.1363 17.8122 48.6193 17.5515C49.1023 17.2832 49.5048 16.9152 49.8268 16.4475C50.1565 15.9722 50.4248 15.4355 50.6318 14.8375H50.8618C50.5628 15.8035 50.0913 16.6123 49.4473 17.264C48.8033 17.908 47.8986 18.23 46.7333 18.23ZM56.366 18.161C55.7373 18.161 55.2697 18.023 54.963 17.747C54.6563 17.471 54.4532 17.126 54.3535 16.712C54.2615 16.2903 54.2155 15.8687 54.2155 15.447V5.12C54.5605 5.12 54.9323 5.04717 55.331 4.9015C55.7297 4.75583 56.044 4.59867 56.274 4.43V16.183C56.274 16.758 56.343 17.1452 56.481 17.3445C56.6267 17.5362 56.8567 17.632 57.171 17.632C57.5697 17.632 57.9568 17.4403 58.3325 17.057C58.7158 16.666 59.0187 16.2252 59.241 15.7345L59.425 15.838C59.1413 16.5203 58.7388 17.08 58.2175 17.517C57.7038 17.9463 57.0867 18.161 56.366 18.161ZM52.594 7.6385V7.42H58.735V7.6385H52.594ZM66.794 0.749999C68.5036 0.749999 69.9756 1.1295 71.21 1.8885C72.452 2.63983 73.4065 3.66717 74.0735 4.9705C74.7481 6.27383 75.0855 7.742 75.0855 9.375C75.0855 10.6017 74.8823 11.7402 74.476 12.7905C74.0773 13.8332 73.51 14.7455 72.774 15.5275C72.038 16.3095 71.164 16.919 70.152 17.356C69.14 17.7853 68.0206 18 66.794 18H60.3655V17.7815H62.424V0.968499H60.3655V0.749999H66.794ZM64.6205 17.7815H66.794C67.852 17.7815 68.7413 17.5438 69.462 17.0685C70.1826 16.5932 70.7615 15.953 71.1985 15.148C71.6355 14.343 71.9498 13.4422 72.1415 12.4455C72.3331 11.4412 72.429 10.4177 72.429 9.375C72.429 8.32467 72.3216 7.30117 72.107 6.3045C71.8923 5.30783 71.5588 4.407 71.1065 3.602C70.6618 2.797 70.083 2.15683 69.37 1.6815C68.657 1.20617 67.7983 0.968499 66.794 0.968499H64.6205V17.7815ZM82.5935 18.23C81.6045 18.23 80.7075 18.0115 79.9025 17.5745C79.1052 17.1298 78.4689 16.4973 77.9935 15.677C77.5259 14.849 77.292 13.86 77.292 12.71C77.292 11.56 77.5182 10.5748 77.9705 9.7545C78.4229 8.9265 79.04 8.294 79.822 7.857C80.6117 7.41233 81.5049 7.19 82.5015 7.19C83.6285 7.19 84.5332 7.41617 85.2155 7.8685C85.8979 8.32083 86.3924 8.91117 86.699 9.6395C87.0057 10.3678 87.159 11.1498 87.159 11.9855H78.8445V11.767H84.721C84.7287 11.3453 84.7057 10.8853 84.652 10.387C84.606 9.88867 84.5102 9.41333 84.3645 8.961C84.2189 8.50867 83.9965 8.13683 83.6975 7.8455C83.3985 7.55417 82.9999 7.4085 82.5015 7.4085C81.9419 7.4085 81.478 7.56183 81.11 7.8685C80.7497 8.1675 80.4622 8.57 80.2475 9.076C80.0405 9.582 79.8949 10.1493 79.8105 10.778C79.7339 11.4067 79.6955 12.0507 79.6955 12.71C79.6955 13.3617 79.7377 14.0018 79.822 14.6305C79.914 15.2592 80.0712 15.8265 80.2935 16.3325C80.5159 16.8308 80.8225 17.2295 81.2135 17.5285C81.6122 17.8275 82.1182 17.977 82.7315 17.977C83.8585 17.977 84.7785 17.6742 85.4915 17.0685C86.2122 16.4628 86.7144 15.7192 86.998 14.8375H87.251C86.952 15.8035 86.4192 16.6123 85.6525 17.264C84.8859 17.908 83.8662 18.23 82.5935 18.23ZM100.359 7.42V7.6385H98.806L94.4475 18.23H94.206L89.859 7.6385H88.571V7.42H94.1025V7.6385H92.1475L95.2295 15.654L98.53 7.6385H96.391V7.42H100.359ZM102.011 18.23V14.9525H102.241C102.287 15.5045 102.486 16.0105 102.839 16.4705C103.199 16.9305 103.655 17.2985 104.207 17.5745C104.759 17.8428 105.349 17.977 105.978 17.977C106.423 17.977 106.848 17.908 107.255 17.77C107.669 17.632 108.006 17.4135 108.267 17.1145C108.535 16.8078 108.669 16.4053 108.669 15.907C108.669 15.4163 108.516 15.033 108.209 14.757C107.902 14.4733 107.508 14.2433 107.025 14.067C106.542 13.8907 106.028 13.7182 105.484 13.5495C104.947 13.3808 104.437 13.1738 103.954 12.9285C103.471 12.6832 103.076 12.3497 102.77 11.928C102.463 11.5063 102.31 10.9505 102.31 10.2605C102.31 9.76983 102.425 9.29067 102.655 8.823C102.885 8.35533 103.233 7.972 103.701 7.673C104.169 7.36633 104.767 7.213 105.495 7.213C106.039 7.213 106.534 7.305 106.979 7.489C107.431 7.66533 107.822 7.89533 108.152 8.179L109.118 7.19H109.313V10.41H109.095C109.072 9.93467 108.903 9.47083 108.589 9.0185C108.282 8.5585 107.864 8.18283 107.335 7.8915C106.806 7.5925 106.2 7.443 105.518 7.443C105.104 7.443 104.732 7.50817 104.403 7.6385C104.073 7.76883 103.808 7.9605 103.609 8.2135C103.41 8.4665 103.31 8.76933 103.31 9.122C103.31 9.56667 103.471 9.92317 103.793 10.1915C104.115 10.4598 104.529 10.6898 105.035 10.8815C105.541 11.0732 106.078 11.261 106.645 11.445C107.22 11.629 107.761 11.8552 108.267 12.1235C108.773 12.3842 109.187 12.7253 109.509 13.147C109.831 13.5687 109.992 14.1092 109.992 14.7685C109.992 15.4508 109.823 16.0527 109.486 16.574C109.148 17.0953 108.688 17.5017 108.106 17.793C107.523 18.0843 106.864 18.23 106.128 18.23C105.568 18.23 105.039 18.138 104.541 17.954C104.042 17.7623 103.605 17.5055 103.23 17.1835L102.206 18.23H102.011Z" fill="#7D47EF"/>
</svg>
