<svg width="22" height="22" viewBox="0 0 22 22" fill="none" xmlns="http://www.w3.org/2000/svg">
<path d="M4.5957 13.8232C4.5957 15.0879 3.5625 16.1211 2.29785 16.1211C1.0332 16.1211 0 15.0879 0 13.8232C0 12.5586 1.0332 11.5254 2.29785 11.5254H4.5957V13.8232ZM5.75391 13.8232C5.75391 12.5586 6.78711 11.5254 8.05176 11.5254C9.31641 11.5254 10.3496 12.5586 10.3496 13.8232V19.5771C10.3496 20.8418 9.31641 21.875 8.05176 21.875C6.78711 21.875 5.75391 20.8418 5.75391 19.5771V13.8232ZM8.05176 4.5957C6.78711 4.5957 5.75391 3.5625 5.75391 2.29785C5.75391 1.0332 6.78711 0 8.05176 0C9.31641 0 10.3496 1.0332 10.3496 2.29785V4.5957H8.05176ZM8.05176 5.75391C9.31641 5.75391 10.3496 6.78711 10.3496 8.05176C10.3496 9.31641 9.31641 10.3496 8.05176 10.3496H2.29785C1.0332 10.3496 0 9.31641 0 8.05176C0 6.78711 1.0332 5.75391 2.29785 5.75391H8.05176ZM17.2793 8.05176C17.2793 6.78711 18.3125 5.75391 19.5771 5.75391C20.8418 5.75391 21.875 6.78711 21.875 8.05176C21.875 9.31641 20.8418 10.3496 19.5771 10.3496H17.2793V8.05176ZM16.1211 8.05176C16.1211 9.31641 15.0879 10.3496 13.8232 10.3496C12.5586 10.3496 11.5254 9.31641 11.5254 8.05176V2.29785C11.5254 1.0332 12.5586 0 13.8232 0C15.0879 0 16.1211 1.0332 16.1211 2.29785V8.05176ZM13.8232 17.2793C15.0879 17.2793 16.1211 18.3125 16.1211 19.5771C16.1211 20.8418 15.0879 21.875 13.8232 21.875C12.5586 21.875 11.5254 20.8418 11.5254 19.5771V17.2793H13.8232ZM13.8232 16.1211C12.5586 16.1211 11.5254 15.0879 11.5254 13.8232C11.5254 12.5586 12.5586 11.5254 13.8232 11.5254H19.5771C20.8418 11.5254 21.875 12.5586 21.875 13.8232C21.875 15.0879 20.8418 16.1211 19.5771 16.1211H13.8232Z" fill="#CCB4FF"/>
</svg>
